# Blender 4.0.2
# www.blender.org
mtllib monopoly.mtl
o Cube.004
v 2.010168 0.850582 1.282896
v 2.010168 0.858124 1.282896
v 1.784252 0.850582 2.021835
v 1.784252 0.858124 2.021835
v 1.271229 0.850582 1.056980
v 1.271229 0.858124 1.056980
v 1.045313 0.850582 1.795919
v 1.045313 0.858124 1.795919
vn 0.9563 -0.0000 0.2924
vn -0.2924 -0.0000 0.9563
vn -0.9563 -0.0000 -0.2924
vn 0.2924 -0.0000 -0.9563
vn -0.0000 -1.0000 -0.0000
vn -0.0000 1.0000 -0.0000
vt 0.001374 -1.999299
vt 1.001801 -1.999299
vt 1.001801 -0.998872
vt 0.001374 -0.998872
vt 1.001801 0.001556
vt 0.001374 0.001556
vt 1.001801 1.001984
vt 0.001374 1.001984
vt 1.001801 2.002412
vt 0.001374 2.002412
vt -0.999054 0.001556
vt -0.999054 1.001984
vt 2.002229 0.001556
vt 2.002229 1.001984
s 0
usemtl Material.006
f 1/1/1 2/2/1 4/3/1 3/4/1
f 3/4/2 4/3/2 8/5/2 7/6/2
f 7/6/3 8/5/3 6/7/3 5/8/3
f 5/8/4 6/7/4 2/9/4 1/10/4
f 3/11/5 7/6/5 5/8/5 1/12/5
f 8/5/6 4/13/6 2/14/6 6/7/6
