# Blender 4.0.2
# www.blender.org
mtllib Haus.mtl
o Cylinder.010
v 0.000000 -0.265102 -0.051548
v 0.000000 0.265102 -0.051548
v 0.025774 -0.265102 -0.044642
v 0.025774 0.265102 -0.044642
v 0.044642 -0.265102 -0.025774
v 0.044642 0.265102 -0.025774
v 0.051548 -0.265102 0.000000
v 0.051548 0.265102 -0.000000
v 0.044642 -0.265102 0.025774
v 0.044642 0.265102 0.025774
v 0.025774 -0.265102 0.044642
v 0.025774 0.265102 0.044642
v 0.000000 -0.265102 0.051548
v 0.000000 0.265102 0.051548
v -0.025774 -0.265102 0.044642
v -0.025774 0.265102 0.044642
v -0.044642 -0.265102 0.025774
v -0.044642 0.265102 0.025774
v -0.051548 -0.265102 0.000000
v -0.051548 0.265102 -0.000000
v -0.044642 -0.265102 -0.025774
v -0.044642 0.265102 -0.025774
v -0.025774 -0.265102 -0.044642
v -0.025774 0.265102 -0.044642
vn 0.2588 -0.0000 -0.9659
vn 0.7071 -0.0000 -0.7071
vn 0.9659 -0.0000 -0.2588
vn 0.9659 -0.0000 0.2588
vn 0.7071 -0.0000 0.7071
vn 0.2588 -0.0000 0.9659
vn -0.2588 -0.0000 0.9659
vn -0.7071 -0.0000 0.7071
vn -0.9659 -0.0000 0.2588
vn -0.9659 -0.0000 -0.2588
vn -0.0000 1.0000 -0.0000
vn -0.7071 -0.0000 -0.7071
vn -0.2588 -0.0000 -0.9659
vn -0.0000 -1.0000 -0.0000
vt 1.000000 0.500000
vt 1.000000 1.000000
vt 0.916667 1.000000
vt 0.916667 0.500000
vt 0.833333 1.000000
vt 0.833333 0.500000
vt 0.750000 1.000000
vt 0.750000 0.500000
vt 0.666667 1.000000
vt 0.666667 0.500000
vt 0.583333 1.000000
vt 0.583333 0.500000
vt 0.500000 1.000000
vt 0.500000 0.500000
vt 0.416667 1.000000
vt 0.416667 0.500000
vt 0.333333 1.000000
vt 0.333333 0.500000
vt 0.250000 1.000000
vt 0.250000 0.500000
vt 0.166667 1.000000
vt 0.166667 0.500000
vt 0.370000 0.457846
vt 0.250000 0.490000
vt 0.130000 0.457846
vt 0.042154 0.370000
vt 0.010000 0.250000
vt 0.042154 0.130000
vt 0.130000 0.042154
vt 0.250000 0.010000
vt 0.370000 0.042154
vt 0.457846 0.130000
vt 0.490000 0.250000
vt 0.457846 0.370000
vt 0.083333 1.000000
vt 0.083333 0.500000
vt 0.000000 1.000000
vt 0.000000 0.500000
vt 0.750000 0.490000
vt 0.870000 0.457846
vt 0.957846 0.370000
vt 0.990000 0.250000
vt 0.957846 0.130000
vt 0.870000 0.042154
vt 0.750000 0.010000
vt 0.630000 0.042154
vt 0.542154 0.130000
vt 0.510000 0.250000
vt 0.542154 0.370000
vt 0.630000 0.457846
s 0
usemtl Silver.004
f 1/1/1 2/2/1 4/3/1 3/4/1
f 3/4/2 4/3/2 6/5/2 5/6/2
f 5/6/3 6/5/3 8/7/3 7/8/3
f 7/8/4 8/7/4 10/9/4 9/10/4
f 9/10/5 10/9/5 12/11/5 11/12/5
f 11/12/6 12/11/6 14/13/6 13/14/6
f 13/14/7 14/13/7 16/15/7 15/16/7
f 15/16/8 16/15/8 18/17/8 17/18/8
f 17/18/9 18/17/9 20/19/9 19/20/9
f 19/20/10 20/19/10 22/21/10 21/22/10
f 4/23/11 2/24/11 24/25/11 22/26/11 20/27/11 18/28/11 16/29/11 14/30/11 12/31/11 10/32/11 8/33/11 6/34/11
f 21/22/12 22/21/12 24/35/12 23/36/12
f 23/36/13 24/35/13 2/37/13 1/38/13
f 1/39/14 3/40/14 5/41/14 7/42/14 9/43/14 11/44/14 13/45/14 15/46/14 17/47/14 19/48/14 21/49/14 23/50/14
o kleinesHaus
v 0.736395 0.736395 -0.736395
v 0.736395 -0.230328 -0.736395
v 0.736395 0.736395 0.736395
v 0.736395 -0.230328 0.736395
v -0.736395 0.736395 -0.736395
v -0.736395 -0.230328 -0.736395
v -0.736395 0.736395 0.736395
v -0.736395 -0.230328 0.736395
v 0.809259 0.736395 0.809259
v -0.809259 0.736395 0.809259
v 0.809259 0.736395 -0.809259
v -0.809259 0.736395 -0.809259
v 0.809259 0.781730 0.809259
v -0.809259 0.781730 0.809259
v 0.809259 0.781730 -0.809259
v -0.809259 0.781730 -0.809259
v 0.000000 -0.230328 -0.736395
v 0.000000 0.736395 0.736395
v 0.000000 -0.230328 0.736395
v 0.000000 0.736395 -0.736395
v 0.000000 0.736395 0.809259
v 0.000000 0.736395 -0.809259
v 0.000000 1.401632 0.809259
v 0.000000 1.401632 -0.809259
v 0.136233 1.027271 0.165689
v 0.166411 1.358649 0.135511
v 0.136233 1.027271 -0.165689
v 0.166411 1.358649 -0.135511
v 0.467611 1.027271 0.165689
v 0.437433 1.358649 0.135511
v 0.467611 1.027271 -0.165689
v 0.437433 1.358649 -0.135511
v 0.136233 0.777092 -0.165689
v 0.136233 0.777092 0.165689
v 0.467611 0.777092 -0.165689
v 0.467611 0.777092 0.165689
v -0.736395 -0.468378 -0.736395
v -0.736395 -0.468378 0.736395
v 0.000000 -0.468378 -0.736395
v 0.000000 -0.468378 0.736395
v 0.736395 -0.468378 0.736395
v 0.736395 -0.468378 -0.736395
vn -0.0000 -1.0000 -0.0000
vn -0.0000 -0.0000 1.0000
vn -1.0000 -0.0000 -0.0000
vn 1.0000 -0.0000 -0.0000
vn -0.0000 -0.0000 -1.0000
vn -0.6081 0.7939 -0.0000
vn 0.6081 0.7939 -0.0000
vn -0.9959 0.0907 -0.0000
vn -0.0000 0.0907 -0.9959
vn 0.9959 0.0907 -0.0000
vn -0.0000 0.0907 0.9959
vn -0.0000 1.0000 -0.0000
vt 0.625000 0.750000
vt 0.625000 0.500000
vt 0.375000 0.875000
vt 0.625000 0.875000
vt 0.625000 1.000000
vt 0.375000 1.000000
vt 0.375000 0.000000
vt 0.625000 0.000000
vt 0.625000 0.250000
vt 0.375000 0.250000
vt 0.375000 0.500000
vt 0.375000 0.750000
vt 0.375000 0.375000
vt 0.625000 0.375000
vt 0.875000 0.500000
vt 0.875000 0.750000
vt 0.125000 0.500000
vt 0.125000 0.750000
vt 0.250000 0.500000
vt 0.250000 0.750000
s 0
usemtl grün.001
f 27/51/15 25/52/15 35/52/15 33/51/15
f 43/53/16 42/54/16 31/55/16 32/56/16
f 32/57/17 31/58/17 29/59/17 30/60/17
f 43/53/16 32/56/16 62/56/16 64/53/16
f 26/61/18 25/52/18 27/51/18 28/62/18
f 41/63/19 44/64/19 25/52/19 26/61/19
f 29/59/15 31/58/15 34/58/15 36/59/15
f 47/54/20 48/64/20 40/59/20 38/58/20
f 36/59/17 34/58/17 38/58/17 40/59/17
f 33/51/18 35/52/18 39/52/18 37/51/18
f 46/64/19 36/59/19 40/59/19 48/64/19
f 45/54/16 33/51/16 37/51/16 47/54/16
f 44/64/15 29/59/15 36/59/15 46/64/15
f 42/54/15 27/51/15 33/51/15 45/54/15
f 31/55/15 42/54/15 45/54/15 34/55/15
f 25/52/15 44/64/15 46/64/15 35/52/15
f 34/55/16 45/54/16 47/54/16 38/55/16
f 35/52/19 46/64/19 48/64/19 39/52/19
f 37/51/21 39/52/21 48/64/21 47/54/21
f 30/60/19 29/59/19 44/64/19 41/63/19
f 30/60/19 41/63/19 63/63/19 61/60/19
f 28/62/16 27/51/16 42/54/16 43/53/16
f 49/57/22 50/58/22 52/59/22 51/60/22
f 51/60/23 52/59/23 56/52/23 55/61/23
f 55/61/24 56/52/24 54/51/24 53/62/24
f 53/62/25 54/51/25 50/55/25 49/56/25
f 51/60/19 55/61/19 59/61/19 57/60/19
f 56/52/26 52/65/26 50/66/26 54/51/26
f 57/67/15 59/61/15 60/62/15 58/68/15
f 49/57/17 51/60/17 57/60/17 58/57/17
f 55/61/18 53/62/18 60/62/18 59/61/18
f 53/62/16 49/56/16 58/56/16 60/62/16
f 63/69/15 66/61/15 65/62/15 64/70/15
f 61/67/15 63/69/15 64/70/15 62/68/15
f 28/62/16 43/53/16 64/53/16 65/62/16
f 41/63/19 26/61/19 66/61/19 63/63/19
f 32/57/17 30/60/17 61/60/17 62/57/17
f 26/61/18 28/62/18 65/62/18 66/61/18
