# Blender 4.0.2
# www.blender.org
mtllib Hotel.mtl
o Cube.001
v 1.100000 1.000000 -1.245789
v 1.100000 -0.312777 -1.245789
v 1.100000 1.000000 1.245789
v 1.100000 -0.312777 1.245789
v -0.900000 1.000000 -1.245789
v -0.900000 -0.312777 -1.245789
v -0.900000 1.000000 1.245789
v -0.900000 -0.312777 1.245789
v 1.198946 1.000000 1.369055
v -0.998947 1.000000 1.369055
v 1.198946 1.000000 -1.369055
v -0.998947 1.000000 -1.369055
v 1.198946 1.061563 1.369055
v -0.998947 1.061563 1.369055
v 1.198946 1.061563 -1.369055
v -0.998947 1.061563 -1.369055
v 0.100000 -0.312777 -1.245789
v 0.100000 1.000000 1.245789
v 0.100000 -0.312777 1.245789
v 0.100000 1.000000 -1.245789
v 0.100000 1.000000 1.369055
v 0.100000 1.000000 -1.369055
v 0.100000 1.903370 1.369055
v 0.100000 1.903370 -1.369055
v 0.285000 1.395000 0.280303
v 0.325981 1.845000 0.229249
v 0.285000 1.395000 -0.280303
v 0.325981 1.845000 -0.229249
v 0.735000 1.395000 0.280303
v 0.694019 1.845000 0.229249
v 0.735000 1.395000 -0.280303
v 0.694019 1.845000 -0.229249
v 0.285000 1.055265 -0.280303
v 0.285000 1.055265 0.280303
v 0.735000 1.055265 -0.280303
v 0.735000 1.055265 0.280303
v -0.900000 -0.636042 -1.245789
v -0.900000 -0.636042 1.245789
v 0.100000 -0.636042 -1.245789
v 0.100000 -0.636042 1.245789
v 1.100000 -0.636042 1.245789
v 1.100000 -0.636042 -1.245789
vn -0.0000 -1.0000 -0.0000
vn -0.0000 -0.0000 1.0000
vn -1.0000 -0.0000 -0.0000
vn 1.0000 -0.0000 -0.0000
vn -0.0000 -0.0000 -1.0000
vn -0.6081 0.7939 -0.0000
vn 0.6081 0.7939 -0.0000
vn -0.9959 0.0907 -0.0000
vn -0.0000 0.1127 -0.9936
vn 0.9959 0.0907 -0.0000
vn -0.0000 0.1127 0.9936
vn -0.0000 1.0000 -0.0000
vt 0.625000 0.750000
vt 0.625000 0.500000
vt 0.375000 0.875000
vt 0.625000 0.875000
vt 0.625000 1.000000
vt 0.375000 1.000000
vt 0.375000 0.000000
vt 0.625000 0.000000
vt 0.625000 0.250000
vt 0.375000 0.250000
vt 0.375000 0.500000
vt 0.375000 0.750000
vt 0.375000 0.375000
vt 0.625000 0.375000
vt 0.875000 0.500000
vt 0.875000 0.750000
vt 0.125000 0.500000
vt 0.125000 0.750000
vt 0.250000 0.500000
vt 0.250000 0.750000
s 0
usemtl rot
f 3/1/1 1/2/1 11/2/1 9/1/1
f 19/3/2 18/4/2 7/5/2 8/6/2
f 8/7/3 7/8/3 5/9/3 6/10/3
f 19/3/2 8/6/2 38/6/2 40/3/2
f 2/11/4 1/2/4 3/1/4 4/12/4
f 17/13/5 20/14/5 1/2/5 2/11/5
f 5/9/1 7/8/1 10/8/1 12/9/1
f 23/4/6 24/14/6 16/9/6 14/8/6
f 12/9/3 10/8/3 14/8/3 16/9/3
f 9/1/4 11/2/4 15/2/4 13/1/4
f 22/14/5 12/9/5 16/9/5 24/14/5
f 21/4/2 9/1/2 13/1/2 23/4/2
f 20/14/1 5/9/1 12/9/1 22/14/1
f 18/4/1 3/1/1 9/1/1 21/4/1
f 7/5/1 18/4/1 21/4/1 10/5/1
f 1/2/1 20/14/1 22/14/1 11/2/1
f 10/5/2 21/4/2 23/4/2 14/5/2
f 11/2/5 22/14/5 24/14/5 15/2/5
f 13/1/7 15/2/7 24/14/7 23/4/7
f 6/10/5 5/9/5 20/14/5 17/13/5
f 6/10/5 17/13/5 39/13/5 37/10/5
f 4/12/2 3/1/2 18/4/2 19/3/2
f 25/7/8 26/8/8 28/9/8 27/10/8
f 27/10/9 28/9/9 32/2/9 31/11/9
f 31/11/10 32/2/10 30/1/10 29/12/10
f 29/12/11 30/1/11 26/5/11 25/6/11
f 27/10/5 31/11/5 35/11/5 33/10/5
f 32/2/12 28/15/12 26/16/12 30/1/12
f 33/17/1 35/11/1 36/12/1 34/18/1
f 25/7/3 27/10/3 33/10/3 34/7/3
f 31/11/4 29/12/4 36/12/4 35/11/4
f 29/12/2 25/6/2 34/6/2 36/12/2
f 39/19/1 42/11/1 41/12/1 40/20/1
f 37/17/1 39/19/1 40/20/1 38/18/1
f 4/12/2 19/3/2 40/3/2 41/12/2
f 17/13/5 2/11/5 42/11/5 39/13/5
f 8/7/3 6/10/3 37/10/3 38/7/3
f 2/11/4 4/12/4 41/12/4 42/11/4
